<svg width="34" height="34" viewBox="0 0 34 34" fill="none" xmlns="http://www.w3.org/2000/svg">
<g clip-path="url(#clip0_393_372)">
<path d="M15.47 15.5881C11.3474 15.5881 7.99341 12.2342 7.99341 8.11157C7.99341 3.98896 11.3474 0.63501 15.47 0.63501C19.5926 0.63501 22.9465 3.98896 22.9465 8.11157C22.9465 12.2342 19.5926 15.5881 15.47 15.5881ZM18.3704 21.0667C18.3704 19.4115 18.8351 17.8629 19.6406 16.5442C18.3828 17.1689 16.9671 17.5217 15.47 17.5217C13.5281 17.5217 11.7219 16.9304 10.2216 15.9185C8.36653 16.6376 6.66471 17.742 5.21561 19.1911C2.47648 21.9301 0.968018 25.5719 0.968018 29.4455V32.6682C0.968018 33.2021 1.40088 33.635 1.93481 33.635H29.0051C29.5391 33.635 29.9719 33.2021 29.9719 32.6682V29.4455C29.9719 29.3874 29.9703 29.3292 29.9696 29.271C29.0626 29.5923 28.0872 29.7678 27.0715 29.7678C22.2737 29.7678 18.3704 25.8645 18.3704 21.0667Z" fill="#F2F5FD"/>
<path d="M27.0715 14.2991C23.3399 14.2991 20.304 17.335 20.304 21.0667C20.304 24.7983 23.3399 27.8342 27.0715 27.8342C30.8032 27.8342 33.8391 24.7983 33.8391 21.0667C33.8391 17.335 30.8032 14.2991 27.0715 14.2991ZM29.0051 22.0334H28.0383V23.0002C28.0383 23.5342 27.6055 23.967 27.0715 23.967C26.5376 23.967 26.1047 23.5342 26.1047 23.0002V22.0334H25.1379C24.604 22.0334 24.1711 21.6006 24.1711 21.0667C24.1711 20.5327 24.604 20.0999 25.1379 20.0999H26.1047V19.1331C26.1047 18.5991 26.5376 18.1663 27.0715 18.1663C27.6055 18.1663 28.0383 18.5991 28.0383 19.1331V20.0999H29.0051C29.5391 20.0999 29.9719 20.5327 29.9719 21.0667C29.9719 21.6006 29.5391 22.0334 29.0051 22.0334Z" fill="#F2F5FD"/>
</g>
<defs>
<clipPath id="clip0_393_372">
<rect width="33" height="33" fill="white" transform="translate(0.903564 0.63501)"/>
</clipPath>
</defs>
</svg>
