<svg width="34" height="34" viewBox="0 0 34 34" fill="none" xmlns="http://www.w3.org/2000/svg">
<path d="M20.0717 13.9125H18.7083C18.7098 14.4394 18.7138 16.208 18.7164 16.7129C19.2049 16.7104 19.7589 16.7079 20.0717 16.7079C20.8545 16.7079 21.5158 16.0679 21.5158 15.3102C21.5158 14.5526 20.8545 13.9125 20.0717 13.9125ZM10.1797 18.3004H12.4341L11.3121 15.3274L10.1797 18.3004Z" fill="#F2F5FD"/>
<path d="M33.42 19.97L31.2631 18.7247C31.3316 18.1661 31.3651 17.6414 31.3651 17.1351C31.3651 16.6289 31.3316 16.1042 31.2631 15.5455L33.42 14.3003C33.8824 14.0333 34.0409 13.442 33.7738 12.9797L29.1873 5.03568C28.9204 4.57329 28.3291 4.4148 27.8667 4.68183L25.7188 5.92184C24.8714 5.29504 23.9463 4.76439 22.9566 4.33713V1.84692C22.9566 1.31299 22.5237 0.880127 21.9898 0.880127H12.8172C12.2833 0.880127 11.8504 1.31299 11.8504 1.84692V4.33707C10.8607 4.76427 9.93571 5.29504 9.08821 5.92178L6.94038 4.68177C6.47799 4.4148 5.8867 4.57323 5.61973 5.03561L1.03325 12.9797C0.766284 13.442 0.92471 14.0333 1.3871 14.3003L3.54383 15.5455C3.47538 16.1042 3.44186 16.6289 3.44186 17.1351C3.44186 17.6414 3.47538 18.1661 3.54383 18.7247L1.3871 19.97C0.92471 20.2369 0.766284 20.8282 1.03325 21.2906L5.61973 29.2346C5.8867 29.697 6.47799 29.8555 6.94038 29.5885L9.08821 28.3484C9.93571 28.9752 10.8607 29.506 11.8504 29.9331V32.4233C11.8504 32.9572 12.2833 33.3901 12.8172 33.3901H21.9899C22.5238 33.3901 22.9567 32.9572 22.9567 32.4233V29.9331C23.9464 29.5059 24.8714 28.9752 25.7189 28.3484L27.8668 29.5885C28.3291 29.8555 28.9204 29.6971 29.1874 29.2347L33.7739 21.2907C34.0409 20.8282 33.8824 20.2369 33.42 19.97ZM14.9501 22.2291C14.8377 22.2715 14.7223 22.2916 14.6089 22.2916C14.2182 22.2916 13.8503 22.0531 13.7042 21.6659L13.1638 20.234H9.44329L8.89685 21.6687C8.70678 22.1676 8.14829 22.4181 7.6493 22.2281C7.1503 22.0381 6.8999 21.4795 7.08991 20.9805C7.08991 20.9805 10.2418 12.7051 10.2448 12.6979C10.3312 12.4852 10.4791 12.3031 10.6696 12.175C10.8602 12.0469 11.0846 11.9787 11.3142 11.979H11.3155C11.5448 11.9784 11.7691 12.0463 11.9597 12.174C12.1503 12.3017 12.2984 12.4833 12.3851 12.6957C12.3887 12.7044 15.5132 20.9833 15.5132 20.9833C15.7018 21.4828 15.4497 22.0406 14.9501 22.2291ZM20.0717 18.6415C19.7577 18.6415 19.1963 18.6441 18.7054 18.6466V21.3246C18.7054 21.8585 18.2725 22.2914 17.7386 22.2914C17.2047 22.2914 16.7718 21.8585 16.7718 21.3246V12.9488C16.7714 12.8216 16.7961 12.6955 16.8445 12.5779C16.8929 12.4602 16.9641 12.3533 17.0539 12.2632C17.1437 12.1731 17.2504 12.1016 17.3679 12.0528C17.4854 12.004 17.6114 11.9789 17.7386 11.9789H20.0717C21.9341 11.9789 23.4493 13.4733 23.4493 15.3102C23.4493 17.1471 21.9341 18.6415 20.0717 18.6415ZM26.6204 21.3246C26.6204 21.8585 26.1875 22.2914 25.6536 22.2914C25.1196 22.2914 24.6868 21.8585 24.6868 21.3246V12.9457C24.6868 12.4118 25.1196 11.9789 25.6536 11.9789C26.1875 11.9789 26.6204 12.4118 26.6204 12.9457V21.3246Z" fill="#F2F5FD"/>
</svg>
