<svg width="34" height="28" viewBox="0 0 34 28" fill="none" xmlns="http://www.w3.org/2000/svg">
<path d="M10.4924 6.31984C10.7345 5.87721 11.1235 5.56124 11.5733 5.44179L31.857 0.0554093C33.361 -0.344005 34.546 1.49686 33.7384 2.97825L23.0355 22.6106C22.7826 23.0745 22.3691 23.3989 21.8945 23.5056L2.08386 27.9598C0.595367 28.2944 -0.532708 26.4736 0.262513 25.02L10.4924 6.31984Z" fill="#F2F5FD"/>
<path d="M20.2752 14.7065C20.2752 16.8649 18.7189 18.6146 16.799 18.6146C14.8792 18.6146 13.3228 16.8649 13.3228 14.7065C13.3228 12.5481 14.8792 10.7984 16.799 10.7984C18.7189 10.7984 20.2752 12.5481 20.2752 14.7065Z" fill="#D8E2FC"/>
</svg>
