<svg width="21" height="24" viewBox="0 0 21 24" fill="none" xmlns="http://www.w3.org/2000/svg">
<path d="M17.0444 6.04311C16.7304 2.80828 13.9958 0.271606 10.68 0.271606C7.36419 0.271606 4.62987 2.80833 4.31555 6.04311C2.19248 6.34512 0.554932 8.17493 0.554932 10.38C0.554932 12.7956 2.52013 14.7607 4.93561 14.7607H10.0132V9.88137L9.13112 10.7635C8.8708 11.0238 8.44866 11.0238 8.1883 10.7635C7.92794 10.5032 7.92794 10.081 8.1883 9.82066L10.2086 7.80039C10.4689 7.54008 10.8911 7.54008 11.1514 7.80039L13.1717 9.82066C13.4321 10.081 13.4321 10.5031 13.1717 10.7635C13.0415 10.8937 12.8709 10.9588 12.7003 10.9588C12.5296 10.9588 12.359 10.8937 12.2289 10.7635L11.3466 9.88119V14.7608H16.4243C18.8398 14.7608 20.8049 12.7956 20.8049 10.3801C20.8049 8.17493 19.1674 6.34512 17.0444 6.04311ZM12.4254 16.0941H8.93463C8.94272 17.0499 9.72242 17.8251 10.68 17.8251C11.6377 17.8251 12.4174 17.0499 12.4254 16.0941Z" fill="#F2F5FD"/>
<path d="M10.6806 19.1527C9.01015 19.1527 7.64705 17.8152 7.60358 16.155H2.83179C2.86008 16.4137 2.90008 16.671 2.95166 16.926C2.98234 17.0766 3.06412 17.212 3.18317 17.3093C3.30221 17.4065 3.4512 17.4596 3.60492 17.4596H4.81054C4.84543 17.5495 4.88237 17.6385 4.92134 17.7266L4.06861 18.5793C3.95989 18.688 3.89209 18.8309 3.87668 18.9839C3.86128 19.1369 3.89922 19.2905 3.98408 19.4187C4.30704 19.9062 4.67805 20.3601 5.09157 20.7737C5.50508 21.1872 5.95907 21.5583 6.44671 21.8812C6.5749 21.966 6.72846 22.0039 6.88138 21.9885C7.03431 21.973 7.17721 21.9052 7.28589 21.7965L8.13857 20.9438C8.22671 20.9828 8.31573 21.0198 8.40564 21.0547V22.2603C8.40564 22.414 8.45875 22.563 8.55599 22.682C8.65322 22.8011 8.7886 22.8828 8.93921 22.9135C9.51235 23.03 10.0957 23.0886 10.6806 23.0886C11.2654 23.0887 11.8488 23.03 12.422 22.9135C12.5726 22.8829 12.708 22.8011 12.8052 22.682C12.9025 22.563 12.9556 22.414 12.9556 22.2603L12.9556 21.0547C13.0454 21.0198 13.1344 20.9829 13.2226 20.9439L14.0751 21.7964C14.1838 21.9051 14.3267 21.9728 14.4796 21.9883C14.6325 22.0037 14.786 21.9659 14.9142 21.8811C15.4019 21.5582 15.856 21.1871 16.2696 20.7734C16.6831 20.36 17.0541 19.906 17.377 19.4184C17.4618 19.2902 17.4997 19.1367 17.4843 18.9837C17.4689 18.8308 17.4011 18.6879 17.2924 18.5792L16.4398 17.7267C16.4788 17.6385 16.5158 17.5495 16.5507 17.4596H17.756C17.9097 17.4596 18.0587 17.4065 18.1778 17.3092C18.2968 17.212 18.3786 17.0766 18.4093 16.926C18.4609 16.6709 18.5009 16.4137 18.5292 16.155H13.7576C13.7142 17.8152 12.3511 19.1527 10.6806 19.1527Z" fill="#F2F5FD"/>
</svg>
