<svg width="24" height="24" viewBox="0 0 24 24" fill="none" xmlns="http://www.w3.org/2000/svg">
<path fill-rule="evenodd" clip-rule="evenodd" d="M12.0004 21.5999C17.3023 21.5999 21.6004 17.3018 21.6004 11.9999C21.6004 6.69797 17.3023 2.3999 12.0004 2.3999C6.69846 2.3999 2.40039 6.69797 2.40039 11.9999C2.40039 17.3018 6.69846 21.5999 12.0004 21.5999ZM16.4489 10.4484C16.9175 9.9798 16.9175 9.22 16.4489 8.75137C15.9803 8.28275 15.2205 8.28275 14.7519 8.75137L10.8004 12.7028L9.24892 11.1514C8.78029 10.6827 8.02049 10.6827 7.55186 11.1514C7.08323 11.62 7.08323 12.3798 7.55186 12.8484L9.95186 15.2484C10.4205 15.7171 11.1803 15.7171 11.6489 15.2484L16.4489 10.4484Z" fill="black"/>
</svg>
