<svg width="20" height="21" viewBox="0 0 20 21" fill="none" xmlns="http://www.w3.org/2000/svg">
<g clip-path="url(#clip0_18_3130)">
<path d="M7.29172 16.75C5.33922 16.75 3.75 15.1608 3.75 13.2083V4.66672H2.29172C1.02754 4.66672 0 5.69406 0 6.95828V18.2083C0 19.4725 1.02754 20.5 2.29172 20.5H12.7083C13.9725 20.5 15 19.4725 15 18.2083V16.75H7.29172Z" fill="#5174D1"/>
<path d="M18.3333 2.79172C18.3333 1.52586 17.3074 0.5 16.0417 0.5H7.29172C6.02586 0.5 5 1.52586 5 2.79172V13.2083C5 14.4741 6.02586 15.5 7.29172 15.5H16.0417C17.3074 15.5 18.3333 14.4741 18.3333 13.2083V2.79172Z" fill="#5174D1"/>
</g>
<defs>
<clipPath id="clip0_18_3130">
<rect width="20" height="20" fill="white" transform="translate(0 0.5)"/>
</clipPath>
</defs>
</svg>
