<svg width="25" height="24" viewBox="0 0 25 24" fill="none" xmlns="http://www.w3.org/2000/svg">
<path fill-rule="evenodd" clip-rule="evenodd" d="M14.5992 2.39109C16.1207 0.869636 18.5875 0.869636 20.1089 2.39109C21.6304 3.91255 21.6304 6.37932 20.1089 7.90077L12.5149 15.4948C12.0869 15.9228 11.8255 16.1842 11.5342 16.4115C11.191 16.6792 10.8196 16.9087 10.4267 17.096C10.0931 17.2549 9.74244 17.3718 9.16818 17.5632L6.49553 18.4541L5.85386 18.668C5.27951 18.8594 4.64629 18.7099 4.2182 18.2818C3.7901 17.8537 3.64062 17.2205 3.83207 16.6462L4.93683 13.3318C5.12822 12.7576 5.2451 12.4069 5.40405 12.0734C5.59132 11.6804 5.82084 11.309 6.08856 10.9658C6.31578 10.6745 6.57719 10.4131 7.00525 9.98509L14.5992 2.39109ZM6.46092 16.8845L5.61556 16.0391L6.34398 13.8538C6.55606 13.2176 6.64366 12.9589 6.75814 12.7187C6.89854 12.4241 7.07061 12.1457 7.27132 11.8883C7.43497 11.6785 7.62718 11.4845 8.10141 11.0102L13.9924 5.11927C14.2355 5.72927 14.647 6.46549 15.3408 7.15927C16.0345 7.85306 16.7708 8.26447 17.3807 8.50764L11.4898 14.3986C11.0155 14.8728 10.8215 15.065 10.6117 15.2287C10.3544 15.4294 10.0759 15.6015 9.78134 15.7419C9.54113 15.8564 9.28244 15.944 8.64619 16.156L6.46092 16.8845ZM18.576 7.31241C18.4521 7.28522 18.2973 7.24432 18.1213 7.18325C17.6373 7.01532 17.0006 6.69778 16.4014 6.09861C15.8022 5.49944 15.4847 4.86276 15.3168 4.37873C15.2557 4.2027 15.2148 4.04787 15.1876 3.92404L15.6599 3.45175C16.5956 2.51608 18.1126 2.51608 19.0483 3.45175C19.9839 4.38742 19.9839 5.90444 19.0483 6.84011L18.576 7.31241ZM3.75002 22C3.75002 21.5858 4.08581 21.25 4.50002 21.25H20.5V22.75H4.50002C4.08581 22.75 3.75002 22.4142 3.75002 22Z" fill="#1C274C"/>
</svg>
