<svg width="16" height="17" viewBox="0 0 16 17" fill="none" xmlns="http://www.w3.org/2000/svg">
<path fill-rule="evenodd" clip-rule="evenodd" d="M9.39982 2.0941C10.4141 1.0798 12.0586 1.0798 13.0729 2.0941C14.0872 3.10841 14.0872 4.75292 13.0729 5.76722L8.01027 10.8299C7.72494 11.1153 7.55068 11.2895 7.35647 11.441C7.12765 11.6195 6.88007 11.7725 6.6181 11.8974C6.39576 12.0033 6.16195 12.0812 5.77911 12.2088L3.99734 12.8028L3.56957 12.9453C3.18667 13.073 2.76452 12.9733 2.47912 12.6879C2.19373 12.4025 2.09407 11.9804 2.2217 11.5975L2.95821 9.38794C3.08581 9.00509 3.16373 8.77129 3.26969 8.54894C3.39454 8.28698 3.54755 8.0394 3.72603 7.81058C3.87751 7.61636 4.05179 7.44211 4.33716 7.15677L9.39982 2.0941ZM3.97428 11.7563L3.4107 11.1928L3.89631 9.73593C4.0377 9.31176 4.0961 9.1393 4.17242 8.97916C4.26602 8.78276 4.38073 8.59715 4.51454 8.4256C4.62364 8.28572 4.75178 8.15636 5.06793 7.84021L8.99525 3.91289C9.15736 4.31955 9.43164 4.81036 9.89416 5.27289C10.3567 5.73541 10.8475 6.00969 11.2542 6.1718L7.32684 10.0991C7.01069 10.4153 6.88133 10.5434 6.74145 10.6525C6.5699 10.7863 6.38428 10.901 6.18788 10.9946C6.02775 11.0709 5.85529 11.1293 5.43112 11.2707L3.97428 11.7563ZM12.051 5.37498C11.9684 5.35685 11.8652 5.32959 11.7479 5.28887C11.4252 5.17692 11.0007 4.96523 10.6013 4.56578C10.2018 4.16633 9.99013 3.74188 9.87818 3.4192C9.83746 3.30184 9.81019 3.19862 9.79207 3.11607L10.1069 2.80121C10.7307 2.17743 11.7421 2.17743 12.3658 2.80121C12.9896 3.42499 12.9896 4.43634 12.3658 5.06012L12.051 5.37498ZM2.16701 15.1667C2.16701 14.8906 2.39086 14.6667 2.66701 14.6667H13.3337V15.6667H2.66701C2.39086 15.6667 2.16701 15.4429 2.16701 15.1667Z" fill="#1A3275"/>
</svg>
