<svg width="21" height="21" viewBox="0 0 21 21" fill="none" xmlns="http://www.w3.org/2000/svg">
<g clip-path="url(#clip0_26_3657)">
<path d="M17.7988 0.421509H3.79883C2.14197 0.421509 0.798828 1.76465 0.798828 3.42151V17.4215C0.798828 19.0784 2.14197 20.4215 3.79883 20.4215H17.7988C19.4557 20.4215 20.7988 19.0784 20.7988 17.4215V3.42151C20.7988 1.76465 19.4557 0.421509 17.7988 0.421509Z" fill="#121614"/>
<path d="M14.6895 13.3121L15.1348 10.4215H12.3613V8.54651C12.3613 7.75745 12.748 6.98401 13.9902 6.98401H15.252V4.52307C15.252 4.52307 14.1074 4.32776 13.0137 4.32776C10.7285 4.32776 9.23633 5.71057 9.23633 8.21838V10.4215H6.69727V13.3121H9.23633V20.4215H12.3613V13.3121H14.6895Z" fill="white"/>
</g>
<defs>
<clipPath id="clip0_26_3657">
<rect width="20" height="20" fill="white" transform="translate(0.798828 0.421509)"/>
</clipPath>
</defs>
</svg>
