<svg width="13" height="22" viewBox="0 0 13 22" fill="none" xmlns="http://www.w3.org/2000/svg">
<path d="M7.69875 21.7061H4.26988C3.69716 21.7061 3.23125 21.2402 3.23125 20.6674V12.9334H1.23077C0.658009 12.9334 0.192139 12.4674 0.192139 11.8948V8.58073C0.192139 8.00797 0.658009 7.5421 1.23077 7.5421H3.23125V5.88253C3.23125 4.23702 3.74793 2.83706 4.7253 1.83419C5.70709 0.826797 7.07915 0.294434 8.69314 0.294434L11.3081 0.298699C11.8799 0.299661 12.345 0.765573 12.345 1.33729V4.41433C12.345 4.98705 11.8792 5.45296 11.3067 5.45296L9.54601 5.45359C9.00904 5.45359 8.87229 5.56123 8.84306 5.59423C8.79488 5.64901 8.73755 5.80366 8.73755 6.23085V7.54197H11.1744C11.3578 7.54197 11.5355 7.58722 11.6883 7.67245C12.0178 7.85658 12.2226 8.20469 12.2226 8.5809L12.2213 11.895C12.2213 12.4674 11.7554 12.9333 11.1827 12.9333H8.73751V20.6674C8.73755 21.2402 8.27151 21.7061 7.69875 21.7061ZM4.48646 20.4508H7.48213V12.3715C7.48213 11.9891 7.79335 11.6781 8.17558 11.6781H10.9661L10.9672 8.7974H8.17541C7.79318 8.7974 7.48213 8.48639 7.48213 8.10395V6.23089C7.48213 5.74051 7.53198 5.18281 7.90212 4.76361C8.34942 4.25688 9.05429 4.19842 9.54567 4.19842L11.0897 4.19775V1.55358L8.69213 1.54969C6.09832 1.54969 4.48651 3.21005 4.48651 5.88257V8.1039C4.48651 8.48614 4.17545 8.79736 3.79318 8.79736H1.44739V11.678H3.79318C4.17545 11.678 4.48651 11.9891 4.48651 12.3715L4.48646 20.4508Z" fill="#1A3275"/>
</svg>
