<svg width="20" height="21" viewBox="0 0 20 21" fill="none" xmlns="http://www.w3.org/2000/svg">
<path d="M10.2015 8.99068H19.6415C19.7382 9.49068 19.7948 10.0665 19.7973 10.6548V10.6573C19.7982 10.7123 19.799 10.7773 19.799 10.8423C19.799 12.6182 19.3598 14.2915 18.5849 15.7598L18.6124 15.7023C17.8282 17.1707 16.6757 18.3523 15.2757 19.1498L15.2332 19.1723C13.8374 19.9598 12.169 20.424 10.3924 20.424C10.3249 20.424 10.2574 20.4232 10.1907 20.4223H10.2007C10.1898 20.4223 10.1765 20.4223 10.164 20.4223C8.77068 20.4223 7.44485 20.1323 6.24402 19.6098L6.30735 19.6348C3.88902 18.619 2.00402 16.7332 1.01235 14.3798L0.988184 14.3157C0.48985 13.1665 0.200684 11.8282 0.200684 10.4223C0.200684 9.01651 0.490684 7.67818 1.01318 6.46401L0.988184 6.52901C2.00402 4.11068 3.88985 2.22568 6.24318 1.23401L6.30735 1.20984C7.44402 0.712342 8.76818 0.423175 10.1607 0.423175H10.2032H10.2007C10.2499 0.422342 10.3082 0.421509 10.3665 0.421509C12.904 0.421509 15.209 1.41901 16.9107 3.04401L16.9074 3.04068L14.1857 5.65818C13.1957 4.69818 11.844 4.10568 10.354 4.10568C10.2999 4.10568 10.2465 4.10651 10.1924 4.10818H10.1999C10.1882 4.10818 10.1749 4.10818 10.1607 4.10818C9.02902 4.10818 7.96985 4.42318 7.06818 4.96984L7.09485 4.95484C5.22318 6.08651 3.99068 8.11151 3.99068 10.4232C3.99068 12.7348 5.22318 14.7598 7.06652 15.8757L7.09485 15.8915C7.97068 16.4232 9.02902 16.7382 10.1607 16.7382H10.2024H10.1999H10.269C10.989 16.7382 11.6815 16.624 12.3307 16.4115L12.284 16.4248C12.8807 16.2398 13.3998 15.9732 13.8615 15.6332L13.8474 15.6432C14.2523 15.3323 14.6032 14.9815 14.904 14.5898L14.914 14.5765C15.174 14.249 15.399 13.8757 15.5724 13.4757L15.5848 13.4432C15.709 13.1515 15.8107 12.8107 15.8732 12.4565L15.8774 12.4273H10.2015V8.99068Z" fill="#121212"/>
</svg>
