<svg width="21" height="22" viewBox="0 0 21 22" fill="none" xmlns="http://www.w3.org/2000/svg">
<path d="M20.6177 6.74137C20.5693 5.64283 20.3916 4.88767 20.1371 4.23324C19.8746 3.53862 19.4707 2.91673 18.9417 2.39974C18.4246 1.8747 17.7986 1.46671 17.112 1.20831C16.4539 0.953874 15.7026 0.77617 14.6041 0.727786C13.4974 0.675202 13.146 0.663086 10.3391 0.663086C7.53222 0.663086 7.18089 0.675202 6.07828 0.723667C4.97979 0.772132 4.22459 0.949916 3.57035 1.20419C2.87553 1.46671 2.25365 1.87058 1.73665 2.39974C1.21162 2.91669 0.803827 3.5427 0.545228 4.22928C0.290788 4.88767 0.113125 5.63879 0.0647004 6.73725C0.0121566 7.84398 0 8.19531 0 11.0022C0 13.8091 0.0121566 14.1605 0.0605809 15.2631C0.109046 16.3616 0.28683 17.1168 0.54131 17.7712C0.803827 18.4658 1.21162 19.0877 1.73665 19.6047C2.25365 20.1297 2.87965 20.5377 3.56623 20.7961C4.22455 21.0506 4.97567 21.2283 6.07436 21.2767C7.17677 21.3253 7.5283 21.3372 10.3352 21.3372C13.1421 21.3372 13.4935 21.3253 14.5961 21.2767C15.6946 21.2282 16.4498 21.0506 17.104 20.7961C17.7911 20.5305 18.4152 20.1241 18.9361 19.6032C19.4571 19.0823 19.8634 18.4583 20.1291 17.7712C20.3834 17.1129 20.5612 16.3616 20.6097 15.2631C20.6581 14.1605 20.6702 13.8091 20.6702 11.0022C20.6702 8.19531 20.6661 7.84394 20.6177 6.74137ZM18.756 15.1823C18.7115 16.192 18.5419 16.7372 18.4005 17.1007C18.0531 18.0013 17.3383 18.7162 16.4376 19.0636C16.0741 19.205 15.525 19.3745 14.5192 19.4188C13.4288 19.4675 13.1017 19.4794 10.3433 19.4794C7.58477 19.4794 7.25363 19.4675 6.16709 19.4188C5.15741 19.3745 4.61218 19.205 4.2487 19.0636C3.80052 18.8979 3.39257 18.6354 3.06139 18.2921C2.7181 17.9569 2.45559 17.553 2.28992 17.1048C2.14856 16.7413 1.97898 16.192 1.93467 15.1864C1.88604 14.096 1.87409 13.7687 1.87409 11.0103C1.87409 8.25177 1.88604 7.92063 1.93467 6.8343C1.97898 5.82462 2.14856 5.27939 2.28992 4.9159C2.45559 4.46752 2.7181 4.05965 3.06551 3.7284C3.40057 3.38511 3.80444 3.12259 4.25282 2.95712C4.6163 2.81577 5.16565 2.64614 6.17121 2.60167C7.26167 2.55321 7.58889 2.54109 10.3472 2.54109C13.1098 2.54109 13.4368 2.55321 14.5233 2.60167C15.533 2.64618 16.0782 2.81573 16.4417 2.95708C16.8899 3.12259 17.2979 3.38511 17.629 3.7284C17.9723 4.06365 18.2348 4.46752 18.4005 4.9159C18.5419 5.27939 18.7115 5.82853 18.7559 6.8343C18.8044 7.92475 18.8165 8.25177 18.8165 11.0103C18.8165 13.7687 18.8044 14.0918 18.756 15.1823Z" fill="#1A3275"/>
<path d="M10.3392 5.6913C7.40715 5.6913 5.02826 8.07003 5.02826 11.0022C5.02826 13.9344 7.40715 16.3131 10.3392 16.3131C13.2713 16.3131 15.6501 13.9344 15.6501 11.0022C15.6501 8.07003 13.2713 5.6913 10.3392 5.6913ZM10.3392 14.4473C8.43702 14.4473 6.89407 12.9045 6.89407 11.0022C6.89407 9.0999 8.43702 7.55719 10.3391 7.55719C12.2415 7.55719 13.7842 9.0999 13.7842 11.0022C13.7842 12.9045 12.2414 14.4473 10.3392 14.4473ZM17.1001 5.48129C17.1001 6.16601 16.5449 6.72117 15.86 6.72117C15.1753 6.72117 14.6202 6.16601 14.6202 5.48129C14.6202 4.79648 15.1753 4.24148 15.8601 4.24148C16.5449 4.24148 17.1001 4.79644 17.1001 5.48129Z" fill="#1A3275"/>
</svg>
