<svg width="26" height="19" viewBox="0 0 26 19" fill="none" xmlns="http://www.w3.org/2000/svg">
<path d="M6.4956 6.30485C8.13635 6.30485 9.46645 4.97476 9.46645 3.33401C9.46645 1.69325 8.13635 0.363159 6.4956 0.363159C4.85485 0.363159 3.52475 1.69325 3.52475 3.33401C3.52475 4.97476 4.85485 6.30485 6.4956 6.30485Z" fill="#F2F5FD"/>
<path d="M19.8644 6.30485C21.5052 6.30485 22.8353 4.97476 22.8353 3.33401C22.8353 1.69325 21.5052 0.363159 19.8644 0.363159C18.2237 0.363159 16.8936 1.69325 16.8936 3.33401C16.8936 4.97476 18.2237 6.30485 19.8644 6.30485Z" fill="#F2F5FD"/>
<path d="M7.98102 15.5482C6.19624 14.3487 5.01018 12.3262 5.01018 10.0184H6.4956C6.4956 12.8848 8.82816 15.2174 11.6946 15.2174H12.4373V12.2465H11.6946C10.4659 12.2465 9.46645 11.2471 9.46645 10.0184C9.46645 7.97085 7.80045 6.30485 5.75289 6.30485H5.35831C3.52258 6.30485 1.94214 7.6757 1.68248 9.49331L0.504395 18.1882H7.98102V15.5482ZM21.0017 6.30485H20.6071C18.5596 6.30485 16.8936 7.97085 16.8936 10.0184C16.8936 11.2471 15.8941 12.2465 14.6654 12.2465H13.9227V15.2174H14.6654C17.5318 15.2174 19.8644 12.8848 19.8644 10.0179H21.3498C21.3498 12.3308 20.1685 14.3706 18.379 15.5713V18.1882H25.8556L24.6775 9.49331C24.4179 7.6757 22.8374 6.30485 21.0017 6.30485Z" fill="#F2F5FD"/>
</svg>
