<svg width="13" height="8" viewBox="0 0 13 8" fill="none" xmlns="http://www.w3.org/2000/svg">
<path d="M3.48486 6.36816L0.434082 3.94043C0.37679 3.88314 0.348145 3.8151 0.348145 3.73633C0.348145 3.66471 0.37679 3.60742 0.434082 3.56445L3.4043 1.20117C3.42578 1.17969 3.45264 1.18327 3.48486 1.21191L4.02197 1.8833C4.04346 1.92627 4.04704 1.95492 4.03271 1.96924L1.83057 3.75244L4.10791 5.6001C4.13298 5.62158 4.13298 5.65023 4.10791 5.68604L3.56006 6.35742C3.53141 6.38607 3.50635 6.38965 3.48486 6.36816ZM6.29395 7.68945H5.17139C5.13916 7.68945 5.12484 7.67155 5.12842 7.63574L6.49268 0.0786133C6.49984 0.0499674 6.51774 0.0356445 6.54639 0.0356445H7.69043C7.72624 0.0356445 7.74056 0.0499674 7.7334 0.0786133L6.34766 7.63574C6.34408 7.67155 6.32617 7.68945 6.29395 7.68945ZM12.186 3.94043L9.14062 6.36816C9.11914 6.38965 9.09408 6.38607 9.06543 6.35742L8.51221 5.68604C8.49072 5.65023 8.49072 5.62158 8.51221 5.6001L10.7896 3.75244L8.5874 1.96924C8.57308 1.95492 8.57845 1.92627 8.60352 1.8833L9.14062 1.21191C9.16927 1.18327 9.19434 1.17969 9.21582 1.20117L12.186 3.56445C12.2469 3.60742 12.2773 3.66471 12.2773 3.73633C12.2773 3.81152 12.2469 3.87956 12.186 3.94043Z" fill="#1A3275"/>
</svg>
