<svg width="23" height="20" viewBox="0 0 23 20" fill="none" xmlns="http://www.w3.org/2000/svg">
<path d="M22.0367 3.78472C21.9737 3.68225 21.8835 3.59933 21.7761 3.54525C21.6687 3.49117 21.5483 3.46807 21.4285 3.47853L20.345 3.57291L21.3807 1.48526C21.4408 1.364 21.4615 1.22694 21.4398 1.09332C21.4181 0.959701 21.3551 0.83624 21.2596 0.740273C21.1641 0.644305 21.041 0.580652 20.9075 0.55825C20.774 0.535849 20.6368 0.555825 20.5152 0.615373L17.7743 1.95773C16.0809 1.06373 13.9652 1.32909 12.5094 2.65523C11.2944 3.76201 10.6558 5.46407 10.7749 7.16142C7.5993 6.84313 4.91128 5.02548 3.32181 2.08852C3.26992 1.99265 3.19468 1.91142 3.10306 1.85235C3.01143 1.79329 2.90639 1.75829 2.79765 1.7506C2.68891 1.74291 2.57998 1.76278 2.48096 1.80837C2.38194 1.85396 2.29602 1.92379 2.23116 2.01141C1.24532 3.3432 1.17615 5.16921 1.94899 6.67147C1.73595 6.61766 1.50925 6.54484 1.25784 6.46085C1.15193 6.42544 1.03866 6.418 0.929021 6.43927C0.819385 6.46054 0.717109 6.50979 0.632118 6.58224C0.547127 6.65469 0.482308 6.74788 0.443951 6.85276C0.405594 6.95765 0.395002 7.07067 0.413203 7.18085C0.71901 9.03488 1.80016 10.4598 3.50803 11.3032C3.28567 11.3806 3.05852 11.4436 2.828 11.4916C2.71541 11.5151 2.61109 11.5681 2.52575 11.6452C2.44042 11.7223 2.37714 11.8207 2.34243 11.9304C2.30772 12.04 2.30282 12.1569 2.32824 12.2691C2.35366 12.3812 2.40847 12.4846 2.48706 12.5686C3.71695 13.8832 5.49357 14.5303 6.7555 14.8407C5.32068 15.9643 3.77182 16.1524 1.52117 16.0751C1.26064 16.0672 1.02062 16.2139 0.911084 16.4501C0.857525 16.5656 0.839201 16.6944 0.858403 16.8203C0.877604 16.9462 0.933478 17.0637 1.01905 17.158C1.95726 18.1922 5.37547 19.3583 8.96877 19.4457C9.11089 19.4491 9.25586 19.451 9.40388 19.451C11.9269 19.451 15.2612 18.9101 17.6546 16.5168C19.4662 14.7053 20.5993 12.6198 21.0223 10.3186C21.364 8.45993 21.1481 6.97155 21.0443 6.25622C21.0367 6.20364 21.0285 6.14783 21.0219 6.09903L22.0353 4.46559C22.0987 4.36341 22.1324 4.2456 22.1327 4.12535C22.1329 4.0051 22.0997 3.88716 22.0367 3.78472ZM19.7618 6.44227C19.9541 7.76735 20.5391 11.7996 16.7383 15.6004C14.529 17.8097 11.311 18.2064 9.00025 18.1502C7.02855 18.1023 5.26491 17.7252 3.98669 17.2951C4.50566 17.2315 4.96815 17.1333 5.4047 16.9976C6.6082 16.6235 7.62493 15.9504 8.60431 14.8793C8.68438 14.7917 8.73887 14.6838 8.76183 14.5674C8.78479 14.451 8.77533 14.3305 8.73449 14.2191C8.69366 14.1077 8.623 14.0096 8.53025 13.9356C8.43749 13.8616 8.32619 13.8145 8.20849 13.7994C7.59064 13.7202 5.73415 13.4077 4.27225 12.3993C4.69353 12.227 5.09983 12.0113 5.4878 11.754C5.59197 11.6849 5.67393 11.5871 5.72378 11.4724C5.77363 11.3578 5.78925 11.2311 5.76876 11.1078C5.74826 10.9845 5.69252 10.8697 5.60827 10.7773C5.52401 10.685 5.41483 10.6189 5.2939 10.5872C4.09736 10.2735 2.65329 9.57159 1.98739 8.00466C2.41262 8.07918 2.87498 8.09722 3.36811 7.98666C3.48037 7.96151 3.58392 7.90691 3.6681 7.82849C3.75228 7.75007 3.81406 7.65065 3.84709 7.54045C3.88013 7.43024 3.88322 7.31323 3.85606 7.20144C3.8289 7.08964 3.77246 6.98709 3.69255 6.90433C2.86399 6.04615 2.55415 4.80942 2.81998 3.75115C3.69055 5.02348 4.79347 6.09427 6.0571 6.88595C7.6736 7.89873 9.56031 8.45845 11.5133 8.50441C11.6116 8.50655 11.7091 8.48639 11.7985 8.44542C11.8878 8.40446 11.9667 8.34376 12.0293 8.2679C12.0917 8.19192 12.136 8.10274 12.1588 8.00711C12.1817 7.91147 12.1825 7.81189 12.1611 7.71591C11.8251 6.20533 12.3043 4.59499 13.3821 3.61327C14.4999 2.59497 16.152 2.4405 17.3995 3.23786C17.4932 3.29774 17.6008 3.33249 17.7118 3.33878C17.8228 3.34507 17.9336 3.32268 18.0335 3.27377L19.372 2.61819L18.6714 4.03056C18.6203 4.13362 18.5975 4.24844 18.6054 4.36321C18.6134 4.47798 18.6517 4.58856 18.7166 4.6836C18.7814 4.77869 18.8703 4.85479 18.9743 4.90407C19.0782 4.95336 19.1935 4.97404 19.3081 4.96398L20.252 4.88178L19.8172 5.58264C19.6712 5.81788 19.7015 6.02659 19.7618 6.44227Z" fill="#1A3275"/>
</svg>
